<?xml version="1.0" ?><!DOCTYPE svg  PUBLIC '-//W3C//DTD SVG 1.1//EN'  'http://www.w3.org/Graphics/SVG/1.1/DTD/svg11.dtd'><svg height="8.4666mm" style="shape-rendering:geometricPrecision; text-rendering:geometricPrecision; image-rendering:optimizeQuality; fill-rule:evenodd; clip-rule:evenodd" version="1.1" viewBox="0 0 846.66 846.66" width="8.4666mm" xml:space="preserve" xmlns="http://www.w3.org/2000/svg" xmlns:xlink="http://www.w3.org/1999/xlink"><defs><style type="text/css">
   <![CDATA[
    .fil0 {fill:black;fill-rule:nonzero}
   ]]>
  </style></defs><g id="Layer_x0020_1"><path class="fil0" d="M712.21 336.26l0 298.9c0,91.43 -74.73,166.16 -166.17,166.16l-421.81 0c-63.43,0 -115.25,-51.82 -115.25,-115.25l0 -377.63c0,-11.43 9.27,-20.71 20.71,-20.71l79.75 0c19.31,-68.68 82.39,-116.91 154.06,-116.91l283.26 0c10.2,-71.88 71.99,-125.48 144.73,-125.48 80.74,0 146.19,65.45 146.19,146.19 0,72.74 -53.59,134.53 -125.47,144.73zm-97.77 -136.4c-15.51,-22.32 18.47,-45.94 33.98,-23.62l19.47 27.95 68.7 -72.16c18.73,-19.69 48.66,8.79 29.93,28.47l-85.32 89.64c-8.71,10.32 -25,9.71 -32.81,-1.53l-33.95 -48.75zm-67.68 12.38l-283.26 0c-65.16,0 -118.56,53.4 -118.56,118.56l0 429.1 401.1 0c68.57,0 124.74,-56.18 124.74,-124.74l0 -298.9c-64.16,-9.1 -114.92,-59.85 -124.02,-124.02zm144.73 -125.48c-57.86,0 -104.76,46.91 -104.76,104.77 0,57.86 46.9,104.77 104.76,104.77 57.87,0 104.77,-46.91 104.77,-104.77 0,-57.86 -46.9,-104.77 -104.77,-104.77zm-449.99 340.93c-27.24,0 -27.24,-41.42 0,-41.42l332.72 0c27.25,0 27.25,41.42 0,41.42l-332.72 0zm0 158.18c-27.24,0 -27.24,-41.42 0,-41.42l332.72 0c27.25,0 27.25,41.42 0,41.42l-332.72 0zm0 -79.09c-27.24,0 -27.24,-41.42 0,-41.42l332.72 0c27.25,0 27.25,41.42 0,41.42l-332.72 0zm-137.98 250.13l0 -426.11 0 -1.65 -53.12 0 0 356.92c0,32.72 21.89,61.63 53.12,70.84z"/></g></svg>